# xmcd
#
# Track frame offsets:
#	150
#	11505
#	22712
#	33643
#	46126
#	59121
#	69744
#	80938
#	91224
#	104820
#	115697
#	125997
#	137465
#	150034
#	158781
#	171897
#	186313
#	197325
#
# Disc length: 2779 seconds
# Revision: 2
# Processed by: cddbd v1.5.2PL0 Copyright (c) Steve Scherf et al.
# Submitted via: dBpowerAMP V12.0
#
DISCID=f00ad912
DTITLE=Patsy Cline - The Very Best Of Patsy Cline - Disc 1
DYEAR=3006
DGENRE=Country
TTITLE0=I've Loved and Lost Again
TTITLE1=Cry Not for Me
TTITLE2=I Can't Forget
TTITLE3=Fingerprints
TTITLE4=If I Could See the World (Through the Eyes of a Child)
TTITLE5=That's How Much I Love You
TTITLE6=Just Out of Reach
TTITLE7=Too Many Secrets
TTITLE8=Church, a Courtroom, and Then Goodbye
TTITLE9=There He Goes
TTITLE10=He Will Do for You
TTITLE11=In Care of the Blues
TTITLE12=Yes, I Understand
TTITLE13=Try Again
TTITLE14=Life's Railway to Heaven
TTITLE15=Then You'll Know
TTITLE16=A Stranger in Your Arms
TTITLE17=The Heart You Break May Be Your Own
EXTD=
EXTT0=
EXTT1=
EXTT2=
EXTT3=
EXTT4=
EXTT5=
EXTT6=
EXTT7=
EXTT8=
EXTT9=
EXTT10=
EXTT11=
EXTT12=
EXTT13=
EXTT14=
EXTT15=
EXTT16=
EXTT17=
PLAYORDER=
